REM DIRINDEX 1\2\3,1\2\4,1\2\5,1\2\6
REM DIRNAME cjc157,folder01,folder02,folder03,folder04,folder05
TITLE ""
FILE "188 188.mp3" MP3
  TRACK 01 AUDIO
    TITLE "0:"
    INDEX 01 00:00:00
  TRACK 02 AUDIO
    TITLE "3:cjc157_6789"
    INDEX 01 00:00:09
  TRACK 03 AUDIO
    TITLE "0:"
    INDEX 01 00:01:22
  TRACK 04 AUDIO
    TITLE "4:cjc157_6790"
    INDEX 01 00:01:69
  TRACK 05 AUDIO
    TITLE "0:"
    INDEX 01 00:03:23
  TRACK 06 AUDIO
    TITLE "5:cjc157_6791"
    INDEX 01 00:03:64
  TRACK 07 AUDIO
    TITLE "0:"
    INDEX 01 00:07:09
  TRACK 08 AUDIO
    TITLE "3:cjc157_6792"
    INDEX 01 00:07:52
  TRACK 09 AUDIO
    TITLE "0:"
    INDEX 01 00:09:08
  TRACK 10 AUDIO
    TITLE "4:cjc157_6793"
    INDEX 01 00:09:55
  TRACK 11 AUDIO
    TITLE "0:"
    INDEX 01 00:11:52
  TRACK 12 AUDIO
    TITLE "5:cjc157_6794"
    INDEX 01 00:12:36
  TRACK 13 AUDIO
    TITLE "0:"
    INDEX 01 00:18:17
  TRACK 14 AUDIO
    TITLE "3:cjc157_6795"
    INDEX 01 00:18:64
  TRACK 15 AUDIO
    TITLE "0:"
    INDEX 01 00:19:62
  TRACK 16 AUDIO
    TITLE "4:cjc157_6796"
    INDEX 01 00:20:36
  TRACK 17 AUDIO
    TITLE "0:"
    INDEX 01 00:21:60
  TRACK 18 AUDIO
    TITLE "5:cjc157_6797"
    INDEX 01 00:22:30
  TRACK 19 AUDIO
    TITLE "0:"
    INDEX 01 00:25:62
  TRACK 20 AUDIO
    TITLE "5:cjc157_6798"
    INDEX 01 00:26:32
  TRACK 21 AUDIO
    TITLE "0:"
    INDEX 01 00:30:42
  TRACK 22 AUDIO
    TITLE "3:cjc157_6799"
    INDEX 01 00:31:16
  TRACK 23 AUDIO
    TITLE "0:"
    INDEX 01 00:32:58
  TRACK 24 AUDIO
    TITLE "4:cjc157_6800"
    INDEX 01 00:33:30
  TRACK 25 AUDIO
    TITLE "0:"
    INDEX 01 00:35:12
  TRACK 26 AUDIO
    TITLE "5:cjc157_6801"
    INDEX 01 00:35:57
  TRACK 27 AUDIO
    TITLE "0:"
    INDEX 01 00:40:01
  TRACK 28 AUDIO
    TITLE "3:cjc157_6802"
    INDEX 01 00:40:46
  TRACK 29 AUDIO
    TITLE "0:"
    INDEX 01 00:42:29
  TRACK 30 AUDIO
    TITLE "4:cjc157_6803"
    INDEX 01 00:42:74
  TRACK 31 AUDIO
    TITLE "0:"
    INDEX 01 00:44:60
  TRACK 32 AUDIO
    TITLE "5:cjc157_6804"
    INDEX 01 00:45:32
  TRACK 33 AUDIO
    TITLE "0:"
    INDEX 01 00:48:24
  TRACK 34 AUDIO
    TITLE "3:cjc157_6805"
    INDEX 01 00:48:67
  TRACK 35 AUDIO
    TITLE "0:"
    INDEX 01 00:50:13
  TRACK 36 AUDIO
    TITLE "4:cjc157_6806"
    INDEX 01 00:50:56
  TRACK 37 AUDIO
    TITLE "0:"
    INDEX 01 00:54:19
  TRACK 38 AUDIO
    TITLE "5:cjc157_6807"
    INDEX 01 00:54:64
  TRACK 39 AUDIO
    TITLE "0:"
    INDEX 01 00:59:47
  TRACK 40 AUDIO
    TITLE "3:cjc157_6808"
    INDEX 01 01:00:17
  TRACK 41 AUDIO
    TITLE "0:"
    INDEX 01 01:01:44
  TRACK 42 AUDIO
    TITLE "4:cjc157_6809"
    INDEX 01 01:02:16
  TRACK 43 AUDIO
    TITLE "0:"
    INDEX 01 01:03:59
  TRACK 44 AUDIO
    TITLE "5:cjc157_6810"
    INDEX 01 01:04:27
  TRACK 45 AUDIO
    TITLE "0:"
    INDEX 01 01:06:63
  TRACK 46 AUDIO
    TITLE "3:cjc157_6811"
    INDEX 01 01:07:29
  TRACK 47 AUDIO
    TITLE "0:"
    INDEX 01 01:09:46
  TRACK 48 AUDIO
    TITLE "4:cjc157_6812"
    INDEX 01 01:10:18
  TRACK 49 AUDIO
    TITLE "0:"
    INDEX 01 01:11:70
  TRACK 50 AUDIO
    TITLE "5:cjc157_6813"
    INDEX 01 01:12:40
  TRACK 51 AUDIO
    TITLE "0:"
    INDEX 01 01:15:72
  TRACK 52 AUDIO
    TITLE "3:cjc157_6814"
    INDEX 01 01:16:36
  TRACK 53 AUDIO
    TITLE "0:"
    INDEX 01 01:18:29
  TRACK 54 AUDIO
    TITLE "4:cjc157_6815"
    INDEX 01 01:19:01
  TRACK 55 AUDIO
    TITLE "0:"
    INDEX 01 01:21:10
  TRACK 56 AUDIO
    TITLE "5:cjc157_6816"
    INDEX 01 01:21:55
  TRACK 57 AUDIO
    TITLE "0:"
    INDEX 01 01:26:21
  TRACK 58 AUDIO
    TITLE "3:cjc157_6817"
    INDEX 01 01:26:72
  TRACK 59 AUDIO
    TITLE "0:"
    INDEX 01 01:28:22
  TRACK 60 AUDIO
    TITLE "4:cjc157_6818"
    INDEX 01 01:28:69
  TRACK 61 AUDIO
    TITLE "0:"
    INDEX 01 01:30:15
  TRACK 62 AUDIO
    TITLE "5:cjc157_6819"
    INDEX 01 01:30:62
  TRACK 63 AUDIO
    TITLE "0:"
    INDEX 01 01:33:66
